<svg xmlns="http://www.w3.org/2000/svg" viewBox="0 0 1600 900" preserveAspectRatio="xMidYMid slice">
  <defs>
    <linearGradient id="sky" x1="0" y1="0" x2="0" y2="1">
      <stop offset="0%" stop-color="#0b1e34" />
      <stop offset="50%" stop-color="#133a5e" />
      <stop offset="100%" stop-color="#1b4c72" />
    </linearGradient>
    <linearGradient id="bay" x1="0" y1="0" x2="0" y2="1">
      <stop offset="0%" stop-color="#0f2a46" />
      <stop offset="100%" stop-color="#164463" />
    </linearGradient>
    <linearGradient id="overlay" x1="0" y1="0" x2="1" y2="1">
      <stop offset="0%" stop-color="#0d253f" stop-opacity="0.65" />
      <stop offset="100%" stop-color="#0d253f" stop-opacity="0.85" />
    </linearGradient>
  </defs>
  <rect width="1600" height="900" fill="url(#sky)" />
  <g fill="#0d1a2a">
    <polygon points="0,520 260,430 520,520 800,420 1080,520 1330,450 1600,520 1600,900 0,900" />
  </g>
  <rect y="520" width="1600" height="380" fill="url(#bay)" />
  <g fill="#0a1628" opacity="0.92">
    <rect x="120" y="280" width="90" height="260" />
    <rect x="240" y="240" width="120" height="300" />
    <rect x="400" y="260" width="80" height="280" />
    <rect x="520" y="220" width="160" height="320" />
    <rect x="720" y="210" width="90" height="330" />
    <rect x="840" y="180" width="110" height="360" />
    <rect x="990" y="260" width="140" height="280" />
    <rect x="1180" y="230" width="110" height="310" />
    <rect x="1320" y="250" width="90" height="290" />
    <polygon points="910,180 940,120 970,180" />
    <rect x="934" y="120" width="12" height="240" />
  </g>
  <g fill="#112e4c" opacity="0.45">
    <rect x="80" y="360" width="90" height="180" />
    <rect x="300" y="320" width="110" height="220" />
    <rect x="460" y="340" width="70" height="200" />
    <rect x="600" y="310" width="120" height="230" />
    <rect x="760" y="330" width="80" height="210" />
    <rect x="880" y="300" width="140" height="240" />
    <rect x="1060" y="340" width="100" height="200" />
    <rect x="1200" y="320" width="120" height="220" />
    <rect x="1380" y="340" width="80" height="200" />
  </g>
  <rect width="1600" height="900" fill="url(#overlay)" />
  <text x="50%" y="22%" text-anchor="middle" fill="rgba(255,255,255,0.9)" font-family="'Noto Sans JP', 'Hiragino Sans', 'Yu Gothic', sans-serif" font-size="96">Fukuoka</text>
  <text x="50%" y="29%" text-anchor="middle" fill="rgba(255,255,255,0.72)" font-family="'Noto Sans JP', 'Hiragino Sans', 'Yu Gothic', sans-serif" font-size="42">Regional Manufacturing Leadership</text>
</svg>
